<svg xmlns="http://www.w3.org/2000/svg" version="1.1" width="350" height="500">

    <!-- Голова, тело и ноги -->
    <g fill="#f66300">
        <rect x="133" y="400" width="135" height="32" />
        <!-- Тень у тела -->
        <path d="M124 400  A 122 50 0 0 0 276 400" fill="#e25400" />
        <!-- Тело -->
        <path d="M128 295 Q 103 340, 100 370 H 133 L 125 400 Q 200 420, 275 400 V 370 H 308 Q 300 325, 275 295"/>
        <!-- Тень у головы -->
        <path d="M125 297  A 122 122 0 0 0 276 297" fill="#e25400" />
        <circle  cx="200" cy="200" r="122" />
        <ellipse cx="200" cy="210" rx="75" ry="65" stroke="black"/>
    </g>

    <!-- Ноги -->
    <rect x="127" y="430" width="147" height="6" rx="5" ry="5"/> 
    
    <!-- Лицо -->
    <g fill="#ffdeae">
        <!-- Слева -->
        <path d="M210 145 C 190 140, 110 195, 190 255" />
        <!-- Справа -->
        <path d="M209 145 C 250 158, 260 244, 189 255" />
    </g>

    <!-- Глаза -->
    <g fill="white">
        <ellipse cx="175" cy="203" rx="30" ry="36" transform="rotate(30, 175, 195)" />
        <ellipse cx="231" cy="206" rx="30" ry="36" transform="rotate(-30, 235, 205)" />
    </g>

    <!-- Зрачки -->
    <g fill="black">  
        <circle cx="183" cy="199" r="4"/>
        <circle cx="220" cy="203" r="4"/>
    </g>

    <!-- Руки -->
    <g fill="#7f441a">
        <!-- Слева -->
        <path d="M210 145 C 140 130, 90 240, 190 255 C 135 224, 165 150, 210 145" />

        <!-- Справа -->
        <path d="M210 145 C 285 150, 295 270, 190 255 C 260 240, 250 170, 210 145" />

        <!-- Левая рука -->
        <circle cx="112" cy="380" r="21"/>
        <circle cx="126" cy="372" r="9" stroke="black"/>

        <!-- Правая рука -->
        <circle cx="294" cy="379" r="21"/>
        <circle cx="280" cy="370" r="9" stroke="black"/>
    </g>
    
    <!-- Обводки -->
    <g fill="transparent" stroke="black">
        <path d="M189 255 T 184 275, 177 295"/>
        <path d="M189 255 C 198 260, 188 295, 198 308"/>
        <line x1="200" y1="322" x2="200" y2="410"/>
        <line x1="135" y1="373" x2="142" y2="349"/>
        <line x1="272" y1="372" x2="265" y2="351"/>
    </g>

    <!-- Тень у глаз -->
    <g fill="transparent">
        <path d="M201 206 Q 199 198, 203 192" stroke="#676465"/>
        <path d="M204 188 A 30 36 -30 0 1 235 174" stroke="#cbb090"/>
        <path d="M201 188 A 30 36 30 0 0 174 167" stroke="#cbb090"/>
    </g>

</svg>